<svg xmlns="http://www.w3.org/2000/svg" viewBox="0 0 1080 1350" width="1080" height="1350">
<rect width="1080" height="1350" fill="#FFFFFF"/>
<text x="900" y="100" fill="#00c2cb" font-family="Inter, sans-serif" font-size="32" font-weight="500" text-anchor="end" letter-spacing="3">02 / 07</text>
<text x="540" y="240" fill="#303030" font-family="Inter, sans-serif" font-size="40" font-weight="800" text-anchor="middle">Copa Airlines vía Panamá</text>
<circle cx="540" cy="500" r="50" fill="#eabe48"/>
<text x="540" y="515" fill="#303030" font-family="Inter, sans-serif" font-size="42" font-weight="800" text-anchor="middle">PTY</text>
<text x="540" y="600" fill="#303030" font-family="Inter, sans-serif" font-size="28" font-weight="500" text-anchor="middle">Panamá</text>
<line x1="500" y1="540" x2="200" y2="900" stroke="#303030" stroke-width="2" stroke-dasharray="6 4"/>
<line x1="520" y1="555" x2="380" y2="970" stroke="#303030" stroke-width="2" stroke-dasharray="6 4"/>
<line x1="540" y1="555" x2="540" y2="990" stroke="#303030" stroke-width="2" stroke-dasharray="6 4"/>
<line x1="560" y1="555" x2="700" y2="970" stroke="#303030" stroke-width="2" stroke-dasharray="6 4"/>
<line x1="580" y1="540" x2="880" y2="900" stroke="#303030" stroke-width="2" stroke-dasharray="6 4"/>
<circle cx="200" cy="920" r="22" fill="#303030"/>
<text x="200" y="990" fill="#303030" font-family="Inter, sans-serif" font-size="22" font-weight="500" text-anchor="middle">Maracaibo</text>
<circle cx="380" cy="990" r="22" fill="#303030"/>
<text x="380" y="1060" fill="#303030" font-family="Inter, sans-serif" font-size="22" font-weight="500" text-anchor="middle">Valencia</text>
<circle cx="540" cy="1010" r="22" fill="#303030"/>
<text x="540" y="1080" fill="#303030" font-family="Inter, sans-serif" font-size="22" font-weight="500" text-anchor="middle">Caracas</text>
<circle cx="700" cy="990" r="22" fill="#303030"/>
<text x="700" y="1060" fill="#303030" font-family="Inter, sans-serif" font-size="22" font-weight="500" text-anchor="middle">Barquisimeto</text>
<circle cx="880" cy="920" r="22" fill="#303030"/>
<text x="880" y="990" fill="#303030" font-family="Inter, sans-serif" font-size="22" font-weight="500" text-anchor="middle">Barcelona</text>
<text x="540" y="1280" fill="#eabe48" font-family="Inter, sans-serif" font-size="36" font-weight="400" text-anchor="middle" letter-spacing="5">XPLORATRIP</text>
</svg>
